<svg width="49" height="49" viewBox="0 0 49 49" fill="none" xmlns="http://www.w3.org/2000/svg">
<path d="M25.069 1.509C24.21 1.509 23.512 2.141 23.512 2.914V45.581C23.512 46.357 24.211 46.986 25.069 46.986C25.901 46.986 26.597 46.359 26.626 45.581V2.914C26.626 2.138 25.927 1.509 25.069 1.509Z" fill="#50E6FF"/>
<path d="M17.923 9.132C16.926 9.132 16.115 9.87599 16.115 10.788V37.507C16.115 38.419 16.926 39.163 17.923 39.163C18.92 39.163 19.731 38.419 19.731 37.507V10.791C19.731 9.876 18.92 9.13499 17.923 9.13499V9.132Z" fill="url(#paint0_linear_11722_281526)"/>
<path d="M10.871 16.868C9.87399 16.868 9.06299 17.612 9.06299 18.524V29.769C9.06299 30.681 9.87399 31.425 10.871 31.425C11.868 31.425 12.647 30.721 12.679 29.769V18.527C12.679 17.612 11.868 16.871 10.871 16.871V16.868Z" fill="url(#paint1_linear_11722_281526)"/>
<path d="M3.81801 20.14C2.82101 20.14 2.01001 20.884 2.01001 21.796V26.54C2.01001 27.455 2.82101 28.196 3.81801 28.196C4.78301 28.196 5.59401 27.46 5.62601 26.54V21.796C5.62601 20.884 4.81501 20.14 3.81801 20.14Z" fill="url(#paint2_linear_11722_281526)"/>
<path d="M32.0531 9.132C31.0561 9.132 30.2451 9.87599 30.2451 10.788V37.507C30.2451 38.419 31.0561 39.163 32.0531 39.163C33.0501 39.163 33.8611 38.419 33.8611 37.507V10.791C33.8611 9.876 33.0501 9.13499 32.0531 9.13499V9.132Z" fill="url(#paint3_linear_11722_281526)"/>
<path d="M39.108 16.868C38.111 16.868 37.3 17.612 37.3 18.524V29.785C37.332 30.718 38.108 31.425 39.108 31.425C40.108 31.425 40.916 30.681 40.916 29.769V18.527C40.916 17.612 40.105 16.871 39.108 16.871V16.868Z" fill="url(#paint4_linear_11722_281526)"/>
<path d="M46.182 20.14C45.185 20.14 44.377 20.884 44.377 21.796V26.54C44.377 27.455 45.188 28.196 46.182 28.196C47.176 28.196 47.99 27.452 47.99 26.54V21.796C47.99 20.884 47.179 20.14 46.182 20.14Z" fill="url(#paint5_linear_11722_281526)"/>
<path d="M2.04005 8.604C1.78405 8.604 1.54105 8.503 1.36005 8.321C1.17905 8.14 1.07705 7.89701 1.07705 7.64101V1.209C1.07705 0.953 1.17805 0.710007 1.36005 0.529007C1.54105 0.350007 1.78405 0.248993 2.04005 0.248993H8.07404C8.32704 0.248993 8.57305 0.349998 8.75105 0.531998C8.93204 0.712998 9.03404 0.956006 9.03404 1.21201C9.03404 1.46801 8.93305 1.711 8.75105 1.892C8.57005 2.073 8.32704 2.175 8.07104 2.175H3.00204V7.63901C3.00204 7.89501 2.90105 8.14001 2.72205 8.32201C2.54105 8.50301 2.29805 8.60499 2.04205 8.60699L2.03905 8.604H2.04005ZM48.997 7.644V1.21001C48.997 0.954007 48.896 0.710999 48.7141 0.529999C48.5331 0.350999 48.287 0.25 48.034 0.25H42C41.744 0.25 41.5011 0.351005 41.3201 0.533005C41.1391 0.714005 41.037 0.956997 41.037 1.213C41.037 1.469 41.1381 1.71201 41.3201 1.89301C41.5021 2.07401 41.744 2.17599 42 2.17599H47.058V7.64C47.058 7.896 47.159 8.141 47.341 8.323C47.523 8.505 47.768 8.606 48.024 8.606C48.28 8.606 48.525 8.505 48.707 8.323C48.888 8.142 48.9901 7.896 48.9901 7.64L49.0011 7.645H48.998L48.997 7.644ZM8.96404 47.287C8.96404 47.162 8.94005 47.036 8.88905 46.919C8.84105 46.802 8.76905 46.695 8.68105 46.607C8.59005 46.519 8.48605 46.447 8.36905 46.399C8.25205 46.351 8.12605 46.327 8.00105 46.327H2.93005V40.861C2.93005 40.605 2.82905 40.36 2.64705 40.178C2.46505 39.996 2.22004 39.895 1.96404 39.895C1.70804 39.895 1.46304 39.996 1.28104 40.178C1.10004 40.359 0.998047 40.605 0.998047 40.861V47.29C0.998047 47.546 1.10204 47.789 1.28304 47.967C1.46404 48.146 1.70704 48.247 1.96304 48.247H7.99705C8.25305 48.247 8.49605 48.146 8.67705 47.964C8.85805 47.783 8.96004 47.54 8.96004 47.284L8.96304 47.287H8.96404ZM49 47.287V40.861C49 40.605 48.899 40.36 48.717 40.178C48.535 39.996 48.29 39.895 48.034 39.895C47.778 39.895 47.533 39.996 47.351 40.178C47.169 40.36 47.068 40.605 47.068 40.861V46.327H42.01C41.885 46.327 41.759 46.351 41.642 46.402C41.525 46.453 41.421 46.522 41.33 46.61C41.242 46.698 41.17 46.805 41.122 46.922C41.074 47.039 41.05 47.165 41.05 47.29C41.05 47.415 41.074 47.541 41.122 47.658C41.17 47.775 41.242 47.879 41.33 47.97C41.418 48.058 41.525 48.13 41.642 48.178C41.759 48.226 41.885 48.25 42.01 48.25H48.0441C48.2971 48.247 48.537 48.146 48.716 47.965C48.8951 47.786 48.996 47.544 48.996 47.29L48.999 47.287H49Z" fill="#773ADC"/>
<defs>
<linearGradient id="paint0_linear_11722_281526" x1="2.16997" y1="24.147" x2="21.603" y2="24.147" gradientUnits="userSpaceOnUse">
<stop stop-color="#773ADC"/>
<stop offset="1" stop-color="#50E6FF"/>
</linearGradient>
<linearGradient id="paint1_linear_11722_281526" x1="2.02599" y1="24.146" x2="17.193" y2="24.146" gradientUnits="userSpaceOnUse">
<stop stop-color="#773ADC"/>
<stop offset="1" stop-color="#50E6FF"/>
</linearGradient>
<linearGradient id="paint2_linear_11722_281526" x1="2.01001" y1="24.167" x2="10.881" y2="24.167" gradientUnits="userSpaceOnUse">
<stop stop-color="#773ADC"/>
<stop offset="1" stop-color="#50E6FF"/>
</linearGradient>
<linearGradient id="paint3_linear_11722_281526" x1="28.6531" y1="24.147" x2="46.2211" y2="24.147" gradientUnits="userSpaceOnUse">
<stop stop-color="#50E6FF"/>
<stop offset="1" stop-color="#773ADC"/>
</linearGradient>
<linearGradient id="paint4_linear_11722_281526" x1="31.9221" y1="24.146" x2="47.818" y2="24.146" gradientUnits="userSpaceOnUse">
<stop stop-color="#50E6FF"/>
<stop offset="1" stop-color="#773ADC"/>
</linearGradient>
<linearGradient id="paint5_linear_11722_281526" x1="39.0699" y1="24.167" x2="47.909" y2="24.167" gradientUnits="userSpaceOnUse">
<stop stop-color="#50E6FF"/>
<stop offset="1" stop-color="#773ADC"/>
</linearGradient>
</defs>
</svg>
